<svg width="253" height="79" viewBox="0 0 253 79" fill="none" xmlns="http://www.w3.org/2000/svg">
<path d="M220 36H236C236.552 36 237 36.4477 237 37V38H220V36Z" fill="#DADADA"/>
<path d="M219 44H231C231.552 44 232 44.4477 232 45V46H219V44Z" fill="#DADADA"/>
<path d="M220 52H226C226.552 52 227 52.4477 227 53V54H220V52Z" fill="#DADADA"/>
<path d="M57.024 57V18.12H64.08V34.392H72V18.12H79.104V57H72V39.432H64.08V57H57.024ZM89.997 57.432C88.749 57.432 87.677 57.112 86.781 56.472C85.885 55.8 85.197 54.968 84.717 53.976C84.237 52.952 83.997 51.896 83.997 50.808C83.997 49.08 84.317 47.624 84.957 46.44C85.597 45.256 86.445 44.264 87.501 43.464C88.557 42.664 89.757 41.976 91.101 41.4C92.445 40.792 93.805 40.248 95.181 39.768V37.368C95.181 36.568 95.117 35.896 94.989 35.352C94.893 34.808 94.685 34.392 94.365 34.104C94.077 33.816 93.613 33.672 92.973 33.672C92.429 33.672 91.981 33.8 91.629 34.056C91.309 34.312 91.069 34.68 90.909 35.16C90.781 35.608 90.701 36.136 90.669 36.744L90.573 38.424L84.381 38.184C84.477 34.984 85.261 32.632 86.733 31.128C88.237 29.592 90.509 28.824 93.549 28.824C96.333 28.824 98.349 29.592 99.597 31.128C100.877 32.664 101.517 34.744 101.517 37.368V50.184C101.517 51.208 101.533 52.136 101.565 52.968C101.629 53.8 101.693 54.552 101.757 55.224C101.853 55.896 101.933 56.488 101.997 57H96.141C96.045 56.36 95.917 55.64 95.757 54.84C95.629 54.008 95.533 53.4 95.469 53.016C95.149 54.136 94.541 55.16 93.645 56.088C92.749 56.984 91.533 57.432 89.997 57.432ZM92.397 52.584C92.813 52.584 93.197 52.488 93.549 52.296C93.933 52.072 94.269 51.816 94.557 51.528C94.845 51.24 95.053 50.984 95.181 50.76V43.032C94.477 43.448 93.805 43.864 93.165 44.28C92.557 44.696 92.013 45.16 91.533 45.672C91.085 46.152 90.733 46.68 90.477 47.256C90.253 47.832 90.141 48.504 90.141 49.272C90.141 50.296 90.333 51.112 90.717 51.72C91.133 52.296 91.693 52.584 92.397 52.584ZM106.324 57V29.256H112.612V31.656C113.572 30.632 114.612 29.896 115.732 29.448C116.852 28.968 117.988 28.728 119.14 28.728C120.228 28.728 121.172 29 121.972 29.544C122.804 30.088 123.412 30.952 123.796 32.136C124.852 30.92 125.972 30.056 127.156 29.544C128.34 29 129.556 28.728 130.804 28.728C131.796 28.728 132.676 28.984 133.444 29.496C134.212 29.976 134.82 30.712 135.268 31.704C135.716 32.664 135.94 33.88 135.94 35.352V57H129.7V35.928C129.7 34.872 129.524 34.152 129.172 33.768C128.82 33.352 128.324 33.144 127.684 33.144C127.172 33.144 126.596 33.288 125.956 33.576C125.348 33.864 124.788 34.264 124.276 34.776C124.276 34.872 124.276 34.968 124.276 35.064C124.276 35.128 124.276 35.224 124.276 35.352V57H118.084V35.928C118.084 34.872 117.892 34.152 117.508 33.768C117.156 33.352 116.66 33.144 116.02 33.144C115.508 33.144 114.948 33.288 114.34 33.576C113.732 33.864 113.156 34.264 112.612 34.776V57H106.324ZM140.969 57V29.256H147.497V57H140.969ZM140.969 24.84V19.416H147.497V24.84H140.969ZM153.116 57V18.12H159.596V57H153.116ZM172.793 57.336C171.033 57.336 169.641 57.048 168.617 56.472C167.625 55.896 166.921 55.064 166.505 53.976C166.089 52.888 165.881 51.592 165.881 50.088V33.576H163.097V29.256H165.881V20.952H172.457V29.256H176.681V33.576H172.457V49.512C172.457 50.472 172.665 51.16 173.081 51.576C173.497 51.96 174.121 52.152 174.953 52.152C175.305 52.152 175.641 52.136 175.961 52.104C176.313 52.072 176.649 52.04 176.969 52.008V57C176.425 57.064 175.785 57.128 175.049 57.192C174.345 57.288 173.593 57.336 172.793 57.336ZM189.115 57.432C187.099 57.432 185.435 57.064 184.123 56.328C182.811 55.56 181.819 54.456 181.147 53.016C180.507 51.576 180.187 49.832 180.187 47.784V38.472C180.187 36.424 180.507 34.68 181.147 33.24C181.819 31.8 182.811 30.712 184.123 29.976C185.435 29.208 187.099 28.824 189.115 28.824C191.131 28.824 192.795 29.208 194.107 29.976C195.451 30.712 196.443 31.8 197.083 33.24C197.755 34.68 198.091 36.424 198.091 38.472V47.784C198.091 49.832 197.755 51.576 197.083 53.016C196.443 54.456 195.451 55.56 194.107 56.328C192.795 57.064 191.131 57.432 189.115 57.432ZM189.163 52.92C189.899 52.92 190.443 52.712 190.795 52.296C191.147 51.88 191.371 51.32 191.467 50.616C191.563 49.88 191.611 49.08 191.611 48.216V38.04C191.611 37.176 191.563 36.392 191.467 35.688C191.371 34.984 191.147 34.424 190.795 34.008C190.443 33.56 189.899 33.336 189.163 33.336C188.427 33.336 187.883 33.56 187.531 34.008C187.179 34.424 186.939 34.984 186.811 35.688C186.715 36.392 186.667 37.176 186.667 38.04V48.216C186.667 49.08 186.715 49.88 186.811 50.616C186.939 51.32 187.179 51.88 187.531 52.296C187.883 52.712 188.427 52.92 189.163 52.92ZM202.559 57V29.256H209.087V32.04C210.079 31.08 211.119 30.312 212.207 29.736C213.327 29.128 214.527 28.824 215.807 28.824C216.959 28.824 217.871 29.112 218.543 29.688C219.215 30.232 219.711 30.968 220.031 31.896C220.351 32.824 220.511 33.832 220.511 34.92V57H213.983V36.216C213.983 35.384 213.855 34.744 213.599 34.296C213.343 33.848 212.847 33.624 212.111 33.624C211.663 33.624 211.167 33.752 210.623 34.008C210.111 34.264 209.599 34.584 209.087 34.968V57H202.559Z" fill="#09BDB8"/>
<path d="M20 34C20 26.8203 25.8203 21 33 21H54V69C54 70.1046 53.1046 71 52 71H20V34Z" fill="url(#paint0_linear_11_69)"/>
<path d="M35.68 61H52.672L53.296 57.832H40.048L45.712 29.512H41.968L35.68 61Z" fill="#DADADA"/>
<defs>
<linearGradient id="paint0_linear_11_69" x1="37" y1="21" x2="37" y2="71" gradientUnits="userSpaceOnUse">
<stop stop-color="#09BDB8"/>
<stop offset="1" stop-color="#09BDB8" stop-opacity="0"/>
</linearGradient>
</defs>
</svg>
