<svg xmlns="http://www.w3.org/2000/svg" version="1.1" xmlns:xlink="http://www.w3.org/1999/xlink" xmlns:svgjs="http://svgjs.com/svgjs" width="1440" height="560" preserveAspectRatio="none" viewBox="0 0 1440 560"><g mask="url(&quot;#SvgjsMask1001&quot;)" fill="none"><rect width="1440" height="560" x="0" y="0" fill="rgba(17, 17, 17, 1)"></rect><path d="M0,486.614C90.607,489.648,125.018,361.958,198.435,308.771C266.01,259.816,377.263,264.025,411.987,188.148C446.708,112.277,391.985,26.198,363.665,-52.287C340.316,-116.994,296.638,-167.629,262.135,-227.141C217.974,-303.311,217.109,-426.899,132.452,-451.091C47.591,-475.342,-14.484,-361.519,-96.814,-329.718C-169.388,-301.686,-258.997,-325.854,-319.238,-276.621C-382.514,-224.907,-415.893,-142.329,-425.409,-61.165C-434.801,18.936,-415.96,102.357,-371.566,169.689C-330.181,232.458,-247.277,246.973,-190.075,295.763C-120.351,355.233,-91.59,483.547,0,486.614" fill="#0e0e0e"></path><path d="M1440 1063.374C1530.333 1040.608 1607.512 992.951 1685.259 941.63 1762.038 890.947 1853.103 849.794 1890.733 765.843 1928.29 682.054 1877.874 587.563 1885 496.019 1894.871 369.206 2000.844 238.27999999999997 1940.516 126.30000000000001 1882.32 18.277000000000044 1731.57-7.894999999999982 1609.138-16.03099999999995 1498.914-23.355999999999995 1403.36 44.341999999999985 1300.16 83.74700000000001 1206.128 119.65199999999999 1111.1 144.97199999999998 1030.298 204.99099999999999 932.607 277.554 787.242 344.236 785.648 465.918 783.996 591.983 966.3820000000001 637.796 1023.152 750.3679999999999 1076.368 855.892 1005.434 1018.1800000000001 1099.94 1089.144 1192.723 1158.8139999999999 1327.49 1091.729 1440 1063.374" fill="#141414"></path></g><defs><mask id="SvgjsMask1001"><rect width="1440" height="560" fill="#ffffff"></rect></mask></defs></svg>