<svg width="165" height="165" viewBox="0 0 165 165" fill="none" xmlns="http://www.w3.org/2000/svg">
<path d="M72.6214 94.1002C72.6214 99.5448 77.0481 103.975 82.4907 103.975C87.9383 103.975 92.373 99.5448 92.373 94.1002C92.373 88.6443 87.9383 84.2096 82.4907 84.2096C77.0481 84.2099 72.6214 88.6446 72.6214 94.1002ZM82.491 99.155C79.7093 99.155 77.4465 96.8842 77.4465 94.1002C77.4465 91.3111 79.7093 89.0344 82.491 89.0344C85.2797 89.0344 87.5482 91.3111 87.5482 94.1002C87.5482 96.8842 85.2797 99.155 82.491 99.155Z" fill="#1A1A1A"/>
<path d="M82.4957 77.2791L89.8725 56.5249H75.1192L82.4957 77.2791Z" fill="#1A1A1A"/>
<path d="M92.9368 144.378C90.6125 140.669 87.5029 129.458 93.6881 124.568C97.1239 121.897 101.08 122.351 105.144 123.848C105.246 118.75 107.856 102.318 112.331 98.6687V98.5352L112.385 98.6211C113.523 97.707 114.188 97.4987 115.527 96.9588C117.271 96.8306 117.768 96.6865 119.454 97.1302C117.9 87.0152 118.041 81.8686 121.407 78.8285L111.457 62.5044C109.138 58.7108 105.561 56.5249 100.108 56.5249L91.4866 80.7951C95.7425 83.6863 98.5429 88.5647 98.5429 94.0952C98.5429 102.965 91.3587 110.147 82.4857 110.147C73.6393 110.147 66.4552 102.966 66.4552 94.0952C66.4552 88.5647 69.2548 83.686 73.5085 80.7951L64.8867 56.5249C59.4148 56.5249 55.8349 58.7428 53.5372 62.5044L43.5983 78.8126C46.9755 81.778 47.117 86.9244 45.5462 97.1302C46.9622 96.7557 47.5098 96.8203 48.9634 96.8203C50.5311 97.3968 51.3813 97.5949 52.6395 98.5778L52.6664 98.5352V98.5988C57.168 102.174 59.7414 118.375 59.8559 123.848C63.8715 122.378 67.8658 121.886 71.27 124.537C77.4978 129.458 74.3879 140.669 72.1141 144.302C71.1708 145.766 69.8753 146.92 68.3711 147.728H96.6223C95.1277 146.926 93.8505 145.798 92.9368 144.378Z" fill="#1A1A1A"/>
<path d="M82.504 51.796C96.0923 51.796 107.111 40.778 107.111 27.1787C107.111 13.5953 96.0923 2.577 82.504 2.577C68.9073 2.577 57.8947 13.5957 57.8947 27.1787C57.8947 40.778 68.9073 51.796 82.504 51.796Z" fill="#1A1A1A"/>
<path d="M43.117 128.694C37.958 121.432 38.0622 121.55 33.3329 113.914C28.8283 105.594 23.9469 95.5321 21.7108 86.1814C19.672 77.6163 19.253 68.5855 19.6108 59.79C20.0705 50.882 21.0614 43.7757 22.0047 39.4472C22.0047 39.4472 18.8039 47.3666 17.3267 59.555C16.2605 68.4303 16.3727 77.3806 17.7647 86.1385C19.3278 96.0404 23.4343 107.619 27.5245 116.869C31.7698 125.317 32.6409 126.263 36.79 133.664C39.5018 137.89 44.8159 144.793 47.608 148.049C39.5924 145.451 38.3049 157.955 42.5235 161.258C46.4027 164.293 53.5339 160.697 54.9206 158.463C56.3525 156.251 54.6343 152.596 51.3646 150.01C52.5692 150.042 53.7908 149.63 54.7388 148.738C56.4434 147.151 56.8788 144.03 54.9791 141.989C42.0029 128.106 46.5634 133.225 43.117 128.694Z" fill="#1A1A1A"/>
<path d="M24.5085 35.6689C26.985 36.5776 30.0123 34.5522 31.5887 31.2123C32.9511 27.8564 36.3443 18.2068 34.3511 16.6833C32.083 15.0692 24.5484 23.2989 22.9564 27.1677C21.1899 30.9187 22.0397 34.7612 24.5085 35.6689Z" fill="#1A1A1A"/>
<path d="M25.8845 43.1237C25.3689 43.4066 24.9009 43.6895 24.5514 43.9948C21.9971 45.9929 20.9818 50.3268 22.3738 53.217C22.6252 53.7406 22.9803 54.0881 23.3225 54.4569C24.8773 56.0762 27.17 56.0979 29.0077 54.4246C31.18 52.2337 36.4405 45.4853 35.5561 42.7495C34.7489 40.2324 29.0717 41.3818 25.8845 43.1237Z" fill="#1A1A1A"/>
<path d="M67.3229 129.608C64.9393 127.754 58.4259 131.131 56.5882 133.027C54.7901 134.94 55.5244 138.547 58.5011 140.867C61.4639 143.196 65.2312 143.105 66.6605 140.888C68.0605 138.655 69.6982 131.489 67.3229 129.608Z" fill="#1A1A1A"/>
<path d="M29.7503 78.6205C31.1078 75.8365 36.4968 65.0209 35.0751 62.8682C33.3918 60.2816 24.3054 67.3406 22.5552 70.1619C18.1868 76.0605 25.5876 85.1552 29.7503 78.6205Z" fill="#1A1A1A"/>
<path d="M27.5169 95.3078C26.221 98.6906 27.88 103.349 31.0222 105.15C34.1641 106.967 37.2766 105.359 38.209 102.105C38.7462 98.5775 41.4284 85.3206 39.2405 83.5145C36.5793 81.2278 28.5401 91.5944 27.5169 95.3078Z" fill="#1A1A1A"/>
<path d="M46.7908 129.709C50.9163 130.58 53.6544 127.674 53.4463 123.794C52.6095 119.717 51.0787 104.552 48.2148 103.387C44.5573 101.758 39.12 115.645 39.3687 120.123C39.1307 124.275 42.6736 128.86 46.7908 129.709Z" fill="#1A1A1A"/>
<path d="M16.2422 51.9201C18.5453 49.5312 19.5286 45.3581 18.5396 42.1627C17.4445 39.0851 13.2711 31.8124 10.5164 34.0303C7.5426 36.3922 8.09848 47.5757 9.60534 50.7022C10.9364 53.9506 13.9418 54.2874 16.2422 51.9201Z" fill="#1A1A1A"/>
<path d="M14.3289 80.1913C15.8761 77.2521 15.6487 72.9612 13.7974 70.1772C11.7586 67.7034 4.08319 57.1717 2.02844 59.8965C-0.461348 63.0596 5.13037 78.4381 7.62315 80.8806C9.80572 83.6327 12.7871 83.1244 14.3289 80.1913Z" fill="#1A1A1A"/>
<path d="M13.3377 112.637C16.7255 115.02 19.8378 113.417 20.5275 109.596C21.2142 105.765 19.5389 101.036 16.5841 98.5136C13.4901 96.4249 1.64366 86.8808 0.206041 90.5895C-1.65864 94.9872 9.65061 110.756 13.3377 112.637Z" fill="#1A1A1A"/>
<path d="M29.5287 126.733C25.3929 125.552 9.2099 118.76 8.89202 123.335C8.25093 128.919 26.4054 142.763 31.2679 143.49C35.9246 144.944 38.6633 142.031 37.9314 137.58C37.1911 133.113 33.6402 128.523 29.5287 126.733Z" fill="#1A1A1A"/>
<path d="M117.392 148.049C125.765 138.291 131.464 128.833 137.475 116.869C141.483 107.811 145.635 96.2751 147.236 86.1385C148.531 77.9897 148.606 70.4022 148.087 63.7816C147.339 54.0728 144.986 44.3736 142.996 39.4472C144.19 44.9188 145.406 54.591 145.493 63.8778C145.579 71.279 145.002 78.9843 143.29 86.1871C140.871 96.3287 136.07 105.777 131.667 113.914C120.748 131.537 119.38 131.976 110.024 141.989C108.121 144.036 108.559 147.156 110.262 148.738C111.21 149.631 112.43 150.042 113.636 150.01C110.365 152.596 108.647 156.251 110.08 158.463C111.466 160.697 118.597 164.293 122.476 161.258C126.35 158.222 124.478 150.523 122.653 148.636C121.512 147.423 119.521 147.359 117.392 148.049Z" fill="#1A1A1A"/>
<path d="M140.492 35.6689C142.96 34.7609 143.81 30.9187 142.044 27.1677C140.451 23.2989 132.917 15.0692 130.649 16.6833C128.656 18.2068 132.049 27.8564 133.411 31.2123C134.988 34.5522 138.015 36.578 140.492 35.6689Z" fill="#1A1A1A"/>
<path d="M142.626 53.217C144.018 50.3264 143.003 45.9929 140.449 43.9947C138.06 41.9477 130.403 39.7678 129.444 42.7495C128.559 45.4853 133.82 52.2337 135.992 54.4246C138.432 56.6424 141.435 55.7018 142.626 53.217Z" fill="#1A1A1A"/>
<path d="M108.412 133.027C106.574 131.131 100.06 127.754 97.6771 129.608C95.3048 131.489 96.9395 138.655 98.3398 140.889C99.7688 143.106 103.536 143.197 106.499 140.867C109.475 138.548 110.21 134.941 108.412 133.027Z" fill="#1A1A1A"/>
<path d="M129.925 62.8679C128.504 65.0208 133.893 75.8361 135.25 78.6202C136.842 81.1206 139.824 81.6286 141.958 79.2989C143.973 77.1399 144.179 72.5015 142.445 70.1615C140.695 67.3402 131.608 60.2813 129.925 62.8679Z" fill="#1A1A1A"/>
<path d="M133.98 105.151C137.12 103.35 138.779 98.691 137.483 95.3081C136.46 91.5947 128.421 81.2281 125.76 83.5149C123.572 85.3213 126.254 98.5781 126.791 102.105C127.724 105.359 130.836 106.967 133.98 105.151Z" fill="#1A1A1A"/>
<path d="M116.785 103.387C113.921 104.552 112.39 119.717 111.554 123.794C111.346 127.674 114.084 130.581 118.209 129.709C122.326 128.86 125.869 124.275 125.631 120.123C125.88 115.645 120.443 101.758 116.785 103.387Z" fill="#1A1A1A"/>
<path d="M155.394 51.0321C156.901 47.9055 157.457 36.7221 154.483 34.3601C151.728 32.1423 147.555 39.4149 146.459 42.4926C145.471 45.6883 146.454 49.8614 148.757 52.25C151.058 54.6173 154.064 54.2805 155.394 51.0321Z" fill="#1A1A1A"/>
<path d="M150.671 80.1913C152.213 83.1241 155.194 83.6327 157.377 80.8806C159.87 78.4381 165.462 63.0596 162.972 59.8965C160.917 57.1717 153.241 67.7034 151.203 70.1772C149.351 72.9616 149.124 77.2521 150.671 80.1913Z" fill="#1A1A1A"/>
<path d="M144.473 109.596C145.162 113.417 148.274 115.02 151.662 112.637C155.349 110.756 166.659 94.9876 164.794 90.5898C163.357 86.8811 151.51 96.4249 148.416 98.5139C145.461 101.036 143.786 105.765 144.473 109.596Z" fill="#1A1A1A"/>
<path d="M135.471 126.733C131.36 128.523 127.809 133.113 127.069 137.58C126.337 142.031 129.075 144.944 133.732 143.49C138.595 142.763 156.749 128.919 156.108 123.335C155.79 118.76 139.607 125.552 135.471 126.733Z" fill="#1A1A1A"/>
</svg>
