<svg width="165" height="165" viewBox="0 0 165 165" fill="none" xmlns="http://www.w3.org/2000/svg">
<path d="M148.131 54.282C149.314 53.1222 149.587 51.3189 148.8 49.8608L122.921 1.95004C122.274 0.749013 121.018 0 119.651 0H45.3494C43.9825 0 42.7263 0.749447 42.0793 1.95004L16.1995 49.8608C15.4123 51.3185 15.6854 53.1222 16.8686 54.282L42.6568 79.5317C35.0516 88.5824 30.462 100.246 30.462 112.962C30.462 141.657 53.8074 165 82.5 165C111.193 165 134.537 141.657 134.537 112.962C134.537 100.246 129.949 88.5824 122.342 79.5317H122.344L148.131 54.282ZM58.7244 66.6835L38.6148 46.6881L53.9936 18.2138H111.008L126.387 46.6881L106.275 66.6835C99.145 63.0053 91.0618 60.9258 82.5013 60.9258C73.9391 60.9258 65.8558 63.0057 58.7244 66.6835ZM82.5 149.638C62.2766 149.638 45.824 133.185 45.824 112.962C45.824 92.7396 62.2766 76.2882 82.5 76.2882C102.723 76.2882 119.175 92.7396 119.175 112.962C119.176 133.185 102.723 149.638 82.5 149.638Z" fill="#1A1A1A"/>
<path d="M91.6058 126.466H87.7974V92.6527C87.7974 91.6567 86.9889 90.8477 85.9941 90.8477H81.0276C80.6129 90.8477 80.216 90.9875 79.8973 91.2446L72.2661 97.4004C71.8406 97.7425 71.5926 98.2601 71.5926 98.8025V101.555C71.5926 102.552 72.4007 103.36 73.395 103.36H76.8183V126.467H73.4684C72.4741 126.467 71.6647 127.272 71.6647 128.271V133.274C71.6647 134.269 72.4741 135.079 73.4684 135.079H91.6058C92.5993 135.079 93.4061 134.269 93.4061 133.274V128.27C93.4065 127.271 92.5993 126.466 91.6058 126.466Z" fill="#1A1A1A"/>
</svg>
