<svg width="29" height="25" viewBox="0 0 29 25" fill="none" xmlns="http://www.w3.org/2000/svg">
<path d="M4.22916 20.8334C3.74583 20.8334 3.32291 20.6771 2.96041 20.3646C2.59791 20.0521 2.41666 19.6875 2.41666 19.2709V5.72919C2.41666 5.31252 2.59791 4.94794 2.96041 4.63544C3.32291 4.32294 3.74583 4.16669 4.22916 4.16669H24.7708C25.2542 4.16669 25.6771 4.32294 26.0396 4.63544C26.4021 4.94794 26.5833 5.31252 26.5833 5.72919V19.2709C26.5833 19.6875 26.4021 20.0521 26.0396 20.3646C25.6771 20.6771 25.2542 20.8334 24.7708 20.8334H4.22916ZM14.5 12.9688L4.22916 7.16148V19.2709H24.7708V7.16148L14.5 12.9688ZM14.5 11.4063L24.65 5.72919H4.38021L14.5 11.4063ZM4.22916 7.16148V5.72919V7.16148V19.2709V7.16148Z" fill="#DADADA"/>
</svg>
