<svg width="29" height="25" viewBox="0 0 29 25" fill="none" xmlns="http://www.w3.org/2000/svg">
<path d="M14.5 1.04167L25.7072 6.82292C26.0496 6.97917 26.2812 7.19185 26.402 7.46094C26.5229 7.73004 26.5833 7.9948 26.5833 8.25521V20.3125C26.5833 20.7292 26.402 21.0938 26.0395 21.4063C25.677 21.7188 25.2541 21.875 24.7708 21.875H4.22913C3.74579 21.875 3.32288 21.7188 2.96038 21.4063C2.59788 21.0938 2.41663 20.7292 2.41663 20.3125V8.25521C2.41663 7.9948 2.48208 7.73004 2.61298 7.46094C2.74388 7.19185 2.97045 6.97917 3.29267 6.82292L14.5 1.04167ZM14.5 13.1771L24.65 8.04688L14.5 2.78646L4.34996 8.04688L14.5 13.1771ZM14.5 14.9219L4.22913 9.71355V20.3125H24.7708V9.71355L14.5 14.9219ZM14.5 20.3125H24.7708H4.22913H14.5Z" fill="#DADADA"/>
</svg>
