<svg width="175" height="56" viewBox="0 0 175 56" fill="none" xmlns="http://www.w3.org/2000/svg">
<path opacity="0.8" d="M157 33H167C167.552 33 168 33.4477 168 34V35H157V33Z" fill="#DADADA"/>
<path opacity="0.8" d="M157 27H172C172.552 27 173 27.4477 173 28V29H157V27Z" fill="#DADADA"/>
<path opacity="0.8" d="M158 39H164C164.552 39 165 39.4477 165 40V41H158V39Z" fill="#DADADA"/>
<path d="M36.268 43V13.84H41.56V26.044H47.5V13.84H52.828V43H47.5V29.824H41.56V43H36.268ZM60.9978 43.324C60.0618 43.324 59.2578 43.084 58.5858 42.604C57.9138 42.1 57.3978 41.476 57.0378 40.732C56.6778 39.964 56.4978 39.172 56.4978 38.356C56.4978 37.06 56.7378 35.968 57.2178 35.08C57.6978 34.192 58.3338 33.448 59.1258 32.848C59.9178 32.248 60.8178 31.732 61.8258 31.3C62.8338 30.844 63.8538 30.436 64.8858 30.076V28.276C64.8858 27.676 64.8378 27.172 64.7418 26.764C64.6698 26.356 64.5138 26.044 64.2738 25.828C64.0578 25.612 63.7098 25.504 63.2298 25.504C62.8218 25.504 62.4858 25.6 62.2218 25.792C61.9818 25.984 61.8018 26.26 61.6818 26.62C61.5858 26.956 61.5258 27.352 61.5018 27.808L61.4298 29.068L56.7858 28.888C56.8578 26.488 57.4458 24.724 58.5498 23.596C59.6778 22.444 61.3818 21.868 63.6618 21.868C65.7498 21.868 67.2618 22.444 68.1978 23.596C69.1578 24.748 69.6378 26.308 69.6378 28.276V37.888C69.6378 38.656 69.6498 39.352 69.6738 39.976C69.7218 40.6 69.7698 41.164 69.8178 41.668C69.8898 42.172 69.9498 42.616 69.9978 43H65.6058C65.5338 42.52 65.4378 41.98 65.3178 41.38C65.2218 40.756 65.1498 40.3 65.1018 40.012C64.8618 40.852 64.4058 41.62 63.7338 42.316C63.0618 42.988 62.1498 43.324 60.9978 43.324ZM62.7978 39.688C63.1098 39.688 63.3978 39.616 63.6618 39.472C63.9498 39.304 64.2018 39.112 64.4178 38.896C64.6338 38.68 64.7898 38.488 64.8858 38.32V32.524C64.3578 32.836 63.8538 33.148 63.3738 33.46C62.9178 33.772 62.5098 34.12 62.1498 34.504C61.8138 34.864 61.5498 35.26 61.3578 35.692C61.1898 36.124 61.1058 36.628 61.1058 37.204C61.1058 37.972 61.2498 38.584 61.5378 39.04C61.8498 39.472 62.2698 39.688 62.7978 39.688ZM73.2431 43V22.192H77.9591V23.992C78.6791 23.224 79.4591 22.672 80.2991 22.336C81.1391 21.976 81.9911 21.796 82.8551 21.796C83.6711 21.796 84.3791 22 84.9791 22.408C85.6031 22.816 86.0591 23.464 86.3471 24.352C87.1391 23.44 87.9791 22.792 88.8671 22.408C89.7551 22 90.6671 21.796 91.6031 21.796C92.3471 21.796 93.0071 21.988 93.5831 22.372C94.1591 22.732 94.6151 23.284 94.9511 24.028C95.2871 24.748 95.4551 25.66 95.4551 26.764V43H90.7751V27.196C90.7751 26.404 90.6431 25.864 90.3791 25.576C90.1151 25.264 89.7431 25.108 89.2631 25.108C88.8791 25.108 88.4471 25.216 87.9671 25.432C87.5111 25.648 87.0911 25.948 86.7071 26.332C86.7071 26.404 86.7071 26.476 86.7071 26.548C86.7071 26.596 86.7071 26.668 86.7071 26.764V43H82.0631V27.196C82.0631 26.404 81.9191 25.864 81.6311 25.576C81.3671 25.264 80.9951 25.108 80.5151 25.108C80.1311 25.108 79.7111 25.216 79.2551 25.432C78.7991 25.648 78.3671 25.948 77.9591 26.332V43H73.2431ZM99.2269 43V22.192H104.123V43H99.2269ZM99.2269 18.88V14.812H104.123V18.88H99.2269ZM108.337 43V13.84H113.197V43H108.337ZM123.095 43.252C121.775 43.252 120.731 43.036 119.963 42.604C119.219 42.172 118.691 41.548 118.379 40.732C118.067 39.916 117.911 38.944 117.911 37.816V25.432H115.823V22.192H117.911V15.964H122.843V22.192H126.011V25.432H122.843V37.384C122.843 38.104 122.999 38.62 123.311 38.932C123.623 39.22 124.091 39.364 124.715 39.364C124.979 39.364 125.231 39.352 125.471 39.328C125.735 39.304 125.987 39.28 126.227 39.256V43C125.819 43.048 125.339 43.096 124.787 43.144C124.259 43.216 123.695 43.252 123.095 43.252ZM135.336 43.324C133.824 43.324 132.576 43.048 131.592 42.496C130.608 41.92 129.864 41.092 129.36 40.012C128.88 38.932 128.64 37.624 128.64 36.088V29.104C128.64 27.568 128.88 26.26 129.36 25.18C129.864 24.1 130.608 23.284 131.592 22.732C132.576 22.156 133.824 21.868 135.336 21.868C136.848 21.868 138.096 22.156 139.08 22.732C140.088 23.284 140.832 24.1 141.312 25.18C141.816 26.26 142.068 27.568 142.068 29.104V36.088C142.068 37.624 141.816 38.932 141.312 40.012C140.832 41.092 140.088 41.92 139.08 42.496C138.096 43.048 136.848 43.324 135.336 43.324ZM135.372 39.94C135.924 39.94 136.332 39.784 136.596 39.472C136.86 39.16 137.028 38.74 137.1 38.212C137.172 37.66 137.208 37.06 137.208 36.412V28.78C137.208 28.132 137.172 27.544 137.1 27.016C137.028 26.488 136.86 26.068 136.596 25.756C136.332 25.42 135.924 25.252 135.372 25.252C134.82 25.252 134.412 25.42 134.148 25.756C133.884 26.068 133.704 26.488 133.608 27.016C133.536 27.544 133.5 28.132 133.5 28.78V36.412C133.5 37.06 133.536 37.66 133.608 38.212C133.704 38.74 133.884 39.16 134.148 39.472C134.412 39.784 134.82 39.94 135.372 39.94ZM145.419 43V22.192H150.315V24.28C151.059 23.56 151.839 22.984 152.655 22.552C153.495 22.096 154.395 21.868 155.355 21.868C156.219 21.868 156.903 22.084 157.407 22.516C157.911 22.924 158.283 23.476 158.523 24.172C158.763 24.868 158.883 25.624 158.883 26.44V43H153.987V27.412C153.987 26.788 153.891 26.308 153.699 25.972C153.507 25.636 153.135 25.468 152.583 25.468C152.247 25.468 151.875 25.564 151.467 25.756C151.083 25.948 150.699 26.188 150.315 26.476V43H145.419Z" fill="#09BDB8"/>
<path d="M6 31C6 23.8203 11.8203 18 19 18H34V54C34 55.1046 33.1046 56 32 56H6V31Z" fill="url(#paint0_linear_46_321)"/>
<path d="M18.26 48H31.004L31.472 45.624H21.536L25.784 24.384H22.976L18.26 48Z" fill="#DADADA"/>
<defs>
<linearGradient id="paint0_linear_46_321" x1="20" y1="18" x2="20" y2="56" gradientUnits="userSpaceOnUse">
<stop stop-color="#09BDB8"/>
<stop offset="1" stop-color="#09BDB8" stop-opacity="0"/>
</linearGradient>
</defs>
</svg>
