<svg width="60" height="60" viewBox="0 0 60 60" fill="none" xmlns="http://www.w3.org/2000/svg">
<g opacity="0.6" clip-path="url(#clip0_24_291)">
<path d="M51.6748 43.0137L51.5598 42.1431C51.4819 41.5529 51.3721 40.9674 51.231 40.3891L49.6833 34.0471L47.5484 25.2986C47.4117 24.7385 47.2534 24.1835 47.0708 23.6365C47.0059 23.4419 46.9463 23.2716 46.9111 23.1907C44.2451 17.0528 37.6627 12.4439 28.6969 10.4794C28.6085 10.4599 28.5216 10.4414 28.4332 10.4233C17.6677 8.21374 7.06271 15.0356 4.79292 25.6304C3.47608 31.7768 5.18424 38.2554 9.36207 42.9608C10.2646 43.9772 11.5063 44.6897 12.8585 44.9672L45.4992 51.6665C47.5038 52.0779 49.5757 51.1038 50.5376 49.2977C51.5686 47.3616 51.9618 45.1887 51.6748 43.0137ZM49.4307 40.8034L46.5526 40.2126L42.8183 26.108L46.011 26.7633C46.0123 26.7699 46.0142 26.778 46.0155 26.7844L46.0217 26.8162L49.4307 40.8034ZM31.5279 23.8428L34.9048 36.5928C33.8747 35.7974 32.9708 34.8303 32.2338 33.7116C30.4822 31.0555 29.8696 27.8761 30.5093 24.7595C30.6134 24.252 31.0378 23.8907 31.5279 23.8428ZM37.2837 38.0156L33.6305 24.2224L36.9821 24.9103L40.7179 39.0153L39.783 38.8234C38.9116 38.6444 38.0761 38.3706 37.2837 38.0156ZM42.8351 39.4496L39.0993 25.3447L40.7011 25.6734L44.4354 39.7781L42.8351 39.4496ZM48.8291 48.388C48.2676 49.4423 47.0583 50.0108 45.8882 49.7707L13.2476 43.0714C12.3021 42.8774 11.4362 42.3817 10.8093 41.6757C7.03889 37.429 5.4971 31.5823 6.68552 26.0357C8.7335 16.4757 18.3149 10.3224 28.0441 12.3192C28.124 12.3356 28.2026 12.3523 28.2826 12.3698C36.9539 14.2698 43.1911 18.7318 45.4001 24.6144C45.405 24.63 45.4108 24.6483 45.4161 24.6654L32.2593 21.965C30.5915 21.6227 28.956 22.7019 28.6135 24.3704C27.8699 27.9935 28.5818 31.6894 30.6179 34.777C32.6528 37.865 35.7696 39.9753 39.394 40.7192L49.6991 42.8342L49.7561 43.2671C49.99 45.0393 49.6695 46.8101 48.8291 48.388Z" fill="#DADADA"/>
<path d="M24.7514 23.6161C23.0226 23.2612 21.3273 24.3792 20.9725 26.1079C20.6176 27.8367 21.7356 29.5321 23.4644 29.8869C25.1933 30.2417 26.8886 29.1238 27.2434 27.395C27.5983 25.6662 26.4803 23.9709 24.7514 23.6161ZM23.8535 27.991C23.1699 27.8507 22.7281 27.1805 22.8684 26.4971C23.0087 25.8137 23.6789 25.3717 24.3623 25.512C25.0457 25.6522 25.4878 26.3225 25.3475 27.0059C25.2073 27.6893 24.537 28.1313 23.8535 27.991Z" fill="#DADADA"/>
</g>
<defs>
<clipPath id="clip0_24_291">
<rect width="50" height="50" fill="white" transform="translate(10.0526) rotate(11.5985)"/>
</clipPath>
</defs>
</svg>
